<svg xmlns="http://www.w3.org/2000/svg" xmlns:xlink="http://www.w3.org/1999/xlink" version="1.1" x="0px" y="0px" viewBox="0 0 100 125" enable-background="new 0 0 100 100" xml:space="preserve"><path d="M75,30C75,13.4,63.8,0,50,0S25,13.4,25,30H13l6,70h62l6-70H75z M50,4c11.6,0,21,11.7,21,26H29C29,15.7,38.4,4,50,4z M65,50  c0,2.8-2.2,5-5,5s-5-2.2-5-5s2.2-5,5-5S65,47.2,65,50z M45,50c0,2.8-2.2,5-5,5s-5-2.2-5-5s2.2-5,5-5S45,47.2,45,50z M50,85.1  c-12.4,0-22.5-10.1-22.5-22.5h5c0,9.6,7.9,17.5,17.5,17.5s17.5-7.8,17.5-17.5h5C72.5,75,62.4,85.1,50,85.1z"/></svg>