<svg xmlns="http://www.w3.org/2000/svg" viewBox="0 0 285.18 286.02" fill="currentColor"><text transform="matrix(0.06, -1, 1, 0.06, 13.86, 143.12)" font-size="16" font-family="OPTIVenus-BoldExtended, OPTIVenus" font-weight="700">P</text><text transform="translate(14.8 126.94) rotate(-78.97)" font-size="16" font-family="OPTIVenus-BoldExtended, OPTIVenus" font-weight="700">R</text><text transform="matrix(0.32, -0.95, 0.95, 0.32, 18.16, 109.94)" font-size="16" font-family="OPTIVenus-BoldExtended, OPTIVenus" font-weight="700">E</text><text transform="translate(22.82 95.26) rotate(-63.58)" font-size="16" font-family="OPTIVenus-BoldExtended, OPTIVenus" font-weight="700">M</text><text transform="translate(32.34 76.93) rotate(-57.76)" font-size="16" font-family="OPTIVenus-BoldExtended, OPTIVenus" font-weight="700">I</text><text transform="matrix(0.61, -0.8, 0.8, 0.61, 35.02, 72.17)" font-size="16" font-family="OPTIVenus-BoldExtended, OPTIVenus" font-weight="700">U</text><text transform="matrix(0.71, -0.7, 0.7, 0.71, 45.27, 58.47)" font-size="16" font-family="OPTIVenus-BoldExtended, OPTIVenus" font-weight="700">M</text><text transform="translate(60.29 44.31) rotate(-38.97)" font-size="16" font-family="OPTIVenus-BoldExtended, OPTIVenus" font-weight="700"> </text><text transform="translate(63.38 41.8) rotate(-37.2)" font-size="16" font-family="OPTIVenus-BoldExtended, OPTIVenus" font-weight="700"> </text><text transform="translate(66.31 39.26) rotate(-32.7)" font-size="16" font-family="OPTIVenus-BoldExtended, OPTIVenus" font-weight="700">S</text><text transform="matrix(0.92, -0.39, 0.39, 0.92, 79.7, 30.07)" font-size="16" font-family="OPTIVenus-BoldExtended, OPTIVenus" font-weight="700">W</text><text transform="translate(104.89 19.87) rotate(-13.48)" font-size="16" font-family="OPTIVenus-BoldExtended, OPTIVenus" font-weight="700">E</text><text transform="translate(119.9 16.18) rotate(-6.09)" font-size="16" font-family="OPTIVenus-BoldExtended, OPTIVenus" font-weight="700">D</text><text transform="translate(137.52 14.56) rotate(-0.99)" font-size="16" font-family="OPTIVenus-BoldExtended, OPTIVenus" font-weight="700">I</text><text transform="matrix(1, 0.07, -0.07, 1, 142.97, 14.23)" font-size="16" font-family="OPTIVenus-BoldExtended, OPTIVenus" font-weight="700">S</text><text transform="matrix(0.98, 0.2, -0.2, 0.98, 159.2, 15.24)" font-size="16" font-family="OPTIVenus-BoldExtended, OPTIVenus" font-weight="700">H</text><text transform="translate(176.37 18.96) rotate(16.1)" font-size="16" font-family="OPTIVenus-BoldExtended, OPTIVenus" font-weight="700"> </text><text transform="translate(180.21 20.06) rotate(17.9)" font-size="16" font-family="OPTIVenus-BoldExtended, OPTIVenus" font-weight="700"> </text><text transform="translate(183.95 21) rotate(22.43)" font-size="16" font-family="OPTIVenus-BoldExtended, OPTIVenus" font-weight="700">S</text><text transform="translate(199.01 27.15) rotate(29.96)" font-size="16" font-family="OPTIVenus-BoldExtended, OPTIVenus" font-weight="700">K</text><text transform="translate(214.11 35.85) rotate(37.63)" font-size="16" font-family="OPTIVenus-BoldExtended, OPTIVenus" font-weight="700">A</text><text transform="matrix(0.71, 0.71, -0.71, 0.71, 227.61, 46.29)" font-size="16" font-family="OPTIVenus-BoldExtended, OPTIVenus" font-weight="700">T</text><text transform="translate(238.66 57.26) rotate(51.72)" font-size="16" font-family="OPTIVenus-BoldExtended, OPTIVenus" font-weight="700">E</text><text transform="translate(248.29 69.33) rotate(58.99)" font-size="16" font-family="OPTIVenus-BoldExtended, OPTIVenus" font-weight="700">B</text><text transform="translate(257.25 84.09) rotate(67.01)" font-size="16" font-family="OPTIVenus-BoldExtended, OPTIVenus" font-weight="700">O</text><text transform="translate(264.51 101.28) rotate(75.01)" font-size="16" font-family="OPTIVenus-BoldExtended, OPTIVenus" font-weight="700">A</text><text transform="matrix(0.13, 0.99, -0.99, 0.13, 268.94, 117.72)" font-size="16" font-family="OPTIVenus-BoldExtended, OPTIVenus" font-weight="700">R</text><text transform="translate(271.26 134.88) rotate(90.93)" font-size="16" font-family="OPTIVenus-BoldExtended, OPTIVenus" font-weight="700">D</text><text transform="translate(271.04 152.51) rotate(97.86)" font-size="16" font-family="OPTIVenus-BoldExtended, OPTIVenus" font-weight="700">S</text><text transform="translate(268.56 168.71) rotate(102.39)" font-size="16" font-family="OPTIVenus-BoldExtended, OPTIVenus" font-weight="700"> </text><text transform="translate(267.71 172.58) rotate(104.17)" font-size="16" font-family="OPTIVenus-BoldExtended, OPTIVenus" font-weight="700"> </text><text transform="translate(267.18 176.4) rotate(109.67)" font-size="16" font-family="OPTIVenus-BoldExtended, OPTIVenus" font-weight="700">M</text><text transform="translate(260.16 195.72) rotate(118.08)" font-size="16" font-family="OPTIVenus-BoldExtended, OPTIVenus" font-weight="700">A</text><text transform="translate(252.18 210.77) rotate(125.78)" font-size="16" font-family="OPTIVenus-BoldExtended, OPTIVenus" font-weight="700">D</text><text transform="matrix(-0.68, 0.73, -0.73, -0.68, 241.85, 225.02)" font-size="16" font-family="OPTIVenus-BoldExtended, OPTIVenus" font-weight="700">E</text><text transform="matrix(-0.74, 0.68, -0.68, -0.74, 231.05, 236.25)" font-size="16" font-family="OPTIVenus-BoldExtended, OPTIVenus" font-weight="700"> </text><text transform="translate(228.12 238.94) rotate(139.17)" font-size="16" font-family="OPTIVenus-BoldExtended, OPTIVenus" font-weight="700"> </text><text transform="matrix(-0.83, 0.56, -0.56, -0.83, 225.73, 241.97)" font-size="16" font-family="OPTIVenus-BoldExtended, OPTIVenus" font-weight="700">W</text><text transform="translate(202.74 256.62) rotate(153.34)" font-size="16" font-family="OPTIVenus-BoldExtended, OPTIVenus" font-weight="700">I</text><text transform="translate(197.97 259.27) rotate(158.06)" font-size="16" font-family="OPTIVenus-BoldExtended, OPTIVenus" font-weight="700">T</text><text transform="translate(183.57 265.16) rotate(165.47)" font-size="16" font-family="OPTIVenus-BoldExtended, OPTIVenus" font-weight="700">H</text><text transform="matrix(-0.99, 0.17, -0.17, -0.99, 166.48, 269.3)" font-size="16" font-family="OPTIVenus-BoldExtended, OPTIVenus" font-weight="700"> </text><text transform="matrix(-0.99, 0.14, -0.14, -0.99, 162.55, 269.97)" font-size="16" font-family="OPTIVenus-BoldExtended, OPTIVenus" font-weight="700"> </text><text transform="translate(158.79 270.79) rotate(176.75)" font-size="16" font-family="OPTIVenus-BoldExtended, OPTIVenus" font-weight="700">N</text><text transform="translate(141.59 271.84) rotate(-175.38)" font-size="16" font-family="OPTIVenus-BoldExtended, OPTIVenus" font-weight="700">O</text><text transform="translate(123.02 270.32) rotate(-167.37)" font-size="16" font-family="OPTIVenus-BoldExtended, OPTIVenus" font-weight="700">R</text><text transform="translate(106.13 266.57) rotate(-159.55)" font-size="16" font-family="OPTIVenus-BoldExtended, OPTIVenus" font-weight="700">D</text><text transform="translate(89.64 260.14) rotate(-154.36)" font-size="16" font-family="OPTIVenus-BoldExtended, OPTIVenus" font-weight="700">I</text><text transform="matrix(-0.86, -0.51, 0.51, -0.86, 84.61, 258.04)" font-size="16" font-family="OPTIVenus-BoldExtended, OPTIVenus" font-weight="700">C</text><text transform="matrix(-0.81, -0.58, 0.58, -0.81, 69.45, 248.66)" font-size="16" font-family="OPTIVenus-BoldExtended, OPTIVenus" font-weight="700"> </text><text transform="matrix(-0.79, -0.61, 0.61, -0.79, 66.21, 246.34)" font-size="16" font-family="OPTIVenus-BoldExtended, OPTIVenus" font-weight="700"> </text><text transform="translate(62.97 244.22) rotate(-137.86)" font-size="16" font-family="OPTIVenus-BoldExtended, OPTIVenus" font-weight="700">B</text><text transform="matrix(-0.68, -0.73, 0.73, -0.68, 50.26, 232.38)" font-size="16" font-family="OPTIVenus-BoldExtended, OPTIVenus" font-weight="700">I</text><text transform="translate(46.35 228.57) rotate(-127.75)" font-size="16" font-family="OPTIVenus-BoldExtended, OPTIVenus" font-weight="700">R</text><text transform="matrix(-0.5, -0.87, 0.87, -0.5, 35.73, 214.91)" font-size="16" font-family="OPTIVenus-BoldExtended, OPTIVenus" font-weight="700">C</text><text transform="translate(26.86 199.57) rotate(-112.1)" font-size="16" font-family="OPTIVenus-BoldExtended, OPTIVenus" font-weight="700">H</text></svg>