<?xml version="1.0" standalone="no"?>
<!DOCTYPE svg PUBLIC "-//W3C//DTD SVG 20010904//EN"
 "http://www.w3.org/TR/2001/REC-SVG-20010904/DTD/svg10.dtd">
<svg version="1.0" xmlns="http://www.w3.org/2000/svg"
 width="800.000000pt" height="273.000000pt" viewBox="0 0 800.000000 273.000000"
 preserveAspectRatio="xMidYMid meet">

<g transform="translate(0.000000,273.000000) scale(0.100000,-0.100000)"
fill="currentColor" stroke="none">
<path d="M6375 2720 c-127 -24 -165 -35 -235 -66 -41 -18 -101 -38 -133 -43
-51 -9 -73 -22 -175 -99 -123 -93 -272 -250 -272 -287 0 -11 -22 -56 -50 -100
-75 -122 -112 -208 -145 -334 -9 -35 -23 -74 -32 -87 -11 -17 -14 -37 -10 -65
3 -22 -1 -82 -8 -132 -16 -115 -12 -154 40 -354 8 -32 15 -78 15 -104 0 -46
24 -129 54 -187 9 -17 22 -68 29 -114 16 -101 33 -137 95 -208 26 -29 52 -67
57 -84 7 -21 26 -40 62 -61 38 -21 56 -39 64 -63 7 -22 19 -34 37 -38 54 -12
67 -17 82 -29 8 -7 53 -27 100 -45 47 -17 119 -48 160 -67 52 -25 95 -37 138
-41 57 -4 68 -9 98 -40 32 -33 39 -35 123 -42 48 -4 98 -13 111 -20 16 -9 33
-9 64 -2 22 6 80 14 128 17 66 6 103 15 150 37 36 17 91 33 131 38 38 4 76 15
85 23 9 8 53 31 97 52 44 21 97 51 117 67 20 16 59 36 85 45 56 18 103 59 148
128 18 28 54 70 80 95 25 25 60 73 76 108 17 34 52 90 78 125 26 34 54 73 61
86 7 14 21 34 32 45 44 47 49 64 78 317 8 70 8 108 0 140 -8 30 -8 63 -2 103
7 45 6 67 -4 91 -7 18 -11 35 -7 38 3 3 -1 28 -10 54 -22 70 -47 184 -47 215
0 15 -5 39 -11 55 -6 15 -11 41 -11 56 1 31 -42 105 -82 142 -14 13 -26 34
-26 45 0 33 -49 109 -81 126 -16 8 -29 20 -29 27 0 7 -12 20 -27 29 -16 9 -56
39 -91 67 -35 28 -71 51 -80 51 -33 0 -182 81 -205 112 -30 41 -210 129 -312
153 -82 19 -522 37 -590 25z m500 -250 c301 -60 563 -239 734 -500 249 -378
249 -864 0 -1250 -78 -122 -232 -275 -351 -348 -693 -428 -1587 -37 -1744 763
-20 106 -21 307 0 416 63 338 272 629 571 797 242 136 513 178 790 122z"/>
<path d="M6605 2119 c-207 -19 -357 -82 -605 -255 -85 -60 -194 -134 -241
-165 l-86 -58 -12 -81 c-7 -45 -10 -84 -7 -87 7 -8 140 68 246 141 305 209
372 252 435 282 140 64 269 82 319 43 48 -38 31 -84 -78 -219 -86 -107 -145
-218 -177 -335 -29 -102 -31 -268 -5 -365 66 -251 264 -462 518 -552 44 -15
94 -28 111 -28 33 0 196 76 237 110 l25 22 -42 -5 c-65 -8 -183 9 -269 38
-253 85 -432 305 -450 552 -16 214 108 453 303 587 119 80 238 109 384 93 83
-9 83 -9 106 17 46 54 26 94 -77 150 -168 90 -417 135 -635 115z"/>
<path d="M2740 1865 c-45 -47 -124 -85 -174 -85 -23 0 -58 -3 -79 -7 -35 -5
-38 -8 -35 -37 3 -28 8 -33 52 -47 30 -9 58 -26 70 -43 20 -27 21 -41 24 -476
l3 -448 -23 -26 c-13 -14 -43 -32 -68 -39 -42 -12 -45 -15 -45 -47 l0 -35 230
4 c127 2 233 5 238 8 4 2 7 15 7 29 0 20 -9 29 -43 43 -68 29 -72 38 -75 180
-6 208 -16 205 128 32 68 -83 128 -159 131 -169 9 -23 3 -32 -34 -55 -19 -13
-27 -25 -25 -40 3 -22 4 -22 251 -24 238 -1 247 -1 247 18 0 24 -3 24 61 -5
105 -48 283 -50 404 -5 76 28 167 98 210 161 39 59 75 161 75 215 l0 36 48
-46 c27 -24 63 -52 80 -61 18 -9 32 -20 32 -24 0 -10 -93 -66 -145 -88 -48
-19 -55 -29 -55 -72 0 -50 28 -100 72 -129 21 -14 38 -28 38 -32 0 -3 -25 -19
-56 -35 -181 -95 -133 -263 96 -334 78 -24 320 -24 409 1 254 70 395 251 321
414 -25 56 -90 98 -173 112 -34 5 -130 10 -213 9 -130 -1 -157 2 -190 18 -85
41 -44 94 88 114 246 38 337 115 339 289 1 112 7 124 56 133 78 13 103 40 103
112 0 50 -16 58 -86 45 -40 -8 -105 -9 -204 -3 -298 17 -372 6 -474 -72 -46
-35 -106 -123 -106 -156 0 -29 -15 -21 -33 17 -23 49 -92 121 -144 152 -75 43
-159 64 -260 65 -271 0 -474 -169 -490 -409 -8 -118 18 -205 95 -313 19 -27
10 -24 -46 17 -36 27 -322 366 -322 382 0 5 33 39 73 75 78 72 166 121 237
131 54 9 70 20 70 50 0 41 -17 45 -146 34 -67 -5 -161 -8 -210 -7 l-89 3 0
-35 c0 -30 4 -35 31 -40 72 -15 72 -43 0 -115 -50 -50 -168 -135 -188 -135
-13 0 -10 690 4 750 11 48 10 54 -7 66 -29 22 -48 17 -85 -21z m1936 -524 c73
-33 114 -110 114 -210 -1 -95 -41 -160 -116 -186 -127 -43 -240 100 -206 263
14 68 45 110 96 133 51 23 61 23 112 0z m-822 -15 c86 -36 154 -134 181 -261
18 -84 19 -127 4 -197 -32 -149 -113 -224 -235 -216 -102 6 -178 75 -227 206
-32 85 -31 267 1 337 27 58 75 112 117 131 39 17 117 18 159 0z m1031 -821
c101 -41 43 -169 -101 -225 -47 -19 -80 -24 -159 -24 -92 -1 -105 2 -167 31
-53 25 -71 39 -84 67 -26 53 -10 93 50 134 l48 32 189 0 c143 0 198 -4 224
-15z"/>
<path d="M8 1809 c-14 -9 -6 -61 12 -70 8 -5 35 -13 59 -19 24 -6 54 -22 66
-34 37 -37 45 -107 45 -404 0 -152 5 -306 10 -342 29 -183 171 -337 357 -385
74 -19 232 -19 308 0 171 45 290 166 330 337 8 35 18 125 21 200 l7 137 31 -6
c17 -3 43 -18 59 -34 l27 -29 0 -213 c0 -251 -4 -263 -89 -292 -48 -15 -51
-19 -51 -50 0 -37 17 -49 58 -38 15 4 131 7 257 7 l230 1 0 35 c0 28 -4 36
-25 41 -152 41 -151 39 -153 286 -2 198 5 244 44 278 34 31 75 23 122 -23 46
-45 70 -51 105 -26 21 15 22 14 22 -13 0 -127 81 -194 324 -269 117 -36 156
-69 156 -130 0 -34 -6 -51 -24 -69 -64 -64 -221 -57 -308 15 -34 28 -58 75
-72 143 -5 22 -12 27 -35 27 -44 0 -52 -18 -51 -121 1 -52 -3 -109 -9 -127 -5
-18 -7 -40 -4 -48 8 -23 51 -29 72 -10 22 20 44 20 144 0 268 -54 470 62 469
270 -1 72 -22 124 -69 167 -40 38 -72 52 -213 94 -69 20 -139 45 -157 56 -42
26 -57 70 -39 114 40 96 227 93 309 -5 25 -30 29 -38 41 -93 6 -25 11 -28 39
-25 l32 3 7 105 c3 58 9 117 13 131 11 43 -15 55 -78 35 -42 -13 -63 -14 -106
-6 -144 27 -289 4 -352 -56 l-28 -26 -31 36 c-73 83 -205 63 -291 -44 -18 -22
-36 -40 -40 -40 -5 0 -9 30 -11 67 -4 85 -16 90 -101 34 -73 -47 -135 -71
-187 -71 l-37 0 -6 104 c-7 121 4 214 30 259 15 25 32 36 83 53 63 20 65 22
65 55 l0 34 -242 0 -243 1 0 -37 c0 -40 11 -49 61 -49 16 0 47 -9 68 -20 70
-35 73 -54 69 -446 -3 -326 -4 -341 -26 -396 -73 -181 -289 -256 -465 -161
-60 33 -106 90 -138 170 -22 56 -23 71 -27 404 -3 307 -2 351 13 379 18 35 56
54 128 64 l47 7 0 42 0 42 -311 0 c-171 0 -315 -3 -321 -6z"/>
</g>
</svg>
