<svg xmlns="http://www.w3.org/2000/svg" width="799.513" height="272.09" viewBox="0 0 799.513 272.09"><g transform="translate(-0.087 272.387)"><path d="M637.5-272c-12.7,2.4-16.5,3.5-23.5,6.6a67.707,67.707,0,0,1-13.3,4.3c-5.1.9-7.3,2.2-17.5,9.9-12.3,9.3-27.2,25-27.2,28.7,0,1.1-2.2,5.6-5,10-7.5,12.2-11.2,20.8-14.5,33.4-.9,3.5-2.3,7.4-3.2,8.7-1.1,1.7-1.4,3.7-1,6.5.3,2.2-.1,8.2-.8,13.2-1.6,11.5-1.2,15.4,4,35.4a52.119,52.119,0,0,1,1.5,10.4c0,4.6,2.4,12.9,5.4,18.7.9,1.7,2.2,6.8,2.9,11.4,1.6,10.1,3.3,13.7,9.5,20.8,2.6,2.9,5.2,6.7,5.7,8.4.7,2.1,2.6,4,6.2,6.1,3.8,2.1,5.6,3.9,6.4,6.3.7,2.2,1.9,3.4,3.7,3.8,5.4,1.2,6.7,1.7,8.2,2.9.8.7,5.3,2.7,10,4.5,4.7,1.7,11.9,4.8,16,6.7a39.431,39.431,0,0,0,13.8,4.1c5.7.4,6.8.9,9.8,4,3.2,3.3,3.9,3.5,12.3,4.2,4.8.4,9.8,1.3,11.1,2,1.6.9,3.3.9,6.4.2a85.118,85.118,0,0,1,12.8-1.7c6.6-.6,10.3-1.5,15-3.7A49.3,49.3,0,0,1,705.3-10c3.8-.4,7.6-1.5,8.5-2.3s5.3-3.1,9.7-5.2a78.662,78.662,0,0,0,11.7-6.7,34.443,34.443,0,0,1,8.5-4.5c5.6-1.8,10.3-5.9,14.8-12.8a63.991,63.991,0,0,1,8-9.5,44.56,44.56,0,0,0,7.6-10.8,101.873,101.873,0,0,1,7.8-12.5c2.6-3.4,5.4-7.3,6.1-8.6a20.428,20.428,0,0,1,3.2-4.5c4.4-4.7,4.9-6.4,7.8-31.7.8-7,.8-10.8,0-14a25.072,25.072,0,0,1-.2-10.3c.7-4.5.6-6.7-.4-9.1-.7-1.8-1.1-3.5-.7-3.8.3-.3-.1-2.8-1-5.4-2.2-7-4.7-18.4-4.7-21.5a18.531,18.531,0,0,0-1.1-5.5,18.545,18.545,0,0,1-1.1-5.6c.1-3.1-4.2-10.5-8.2-14.2-1.4-1.3-2.6-3.4-2.6-4.5,0-3.3-4.9-10.9-8.1-12.6-1.6-.8-2.9-2-2.9-2.7s-1.2-2-2.7-2.9a102.3,102.3,0,0,1-9.1-6.7c-3.5-2.8-7.1-5.1-8-5.1-3.3,0-18.2-8.1-20.5-11.2-3-4.1-21-12.9-31.2-15.3C688.3-271.4,644.3-273.2,637.5-272Zm50,25a114.351,114.351,0,0,1,73.4,50c24.9,37.8,24.9,86.4,0,125-7.8,12.2-23.2,27.5-35.1,34.8a115.273,115.273,0,0,1-174.4-76.3c-2-10.6-2.1-30.7,0-41.6a115.618,115.618,0,0,1,57.1-79.7C632.7-248.4,659.8-252.6,687.5-247Z" fill="#fff"/><path d="M660.5-211.9c-20.7,1.9-35.7,8.2-60.5,25.5-8.5,6-19.4,13.4-24.1,16.5l-8.6,5.8-1.2,8.1c-.7,4.5-1,8.4-.7,8.7.7.8,14-6.8,24.6-14.1,30.5-20.9,37.2-25.2,43.5-28.2,14-6.4,26.9-8.2,31.9-4.3,4.8,3.8,3.1,8.4-7.8,21.9-8.6,10.7-14.5,21.8-17.7,33.5-2.9,10.2-3.1,26.8-.5,36.5,6.6,25.1,26.4,46.2,51.8,55.2,4.4,1.5,9.4,2.8,11.1,2.8,3.3,0,19.6-7.6,23.7-11l2.5-2.2-4.2.5c-6.5.8-18.3-.9-26.9-3.8-25.3-8.5-43.2-30.5-45-55.2-1.6-21.4,10.8-45.3,30.3-58.7,11.9-8,23.8-10.9,38.4-9.3,8.3.9,8.3.9,10.6-1.7,4.6-5.4,2.6-9.4-7.7-15C707.2-209.4,682.3-213.9,660.5-211.9Z" fill="#fff"/><path d="M274-186.5c-4.5,4.7-12.4,8.5-17.4,8.5a50.456,50.456,0,0,0-7.9.7c-3.5.5-3.8.8-3.5,3.7.3,2.8.8,3.3,5.2,4.7,3,.9,5.8,2.6,7,4.3,2,2.7,2.1,4.1,2.4,47.6l.3,44.8-2.3,2.6a17.163,17.163,0,0,1-6.8,3.9c-4.2,1.2-4.5,1.5-4.5,4.7v3.5l23-.4c12.7-.2,23.3-.5,23.8-.8.4-.2.7-1.5.7-2.9,0-2-.9-2.9-4.3-4.3-6.8-2.9-7.2-3.8-7.5-18-.6-20.8-1.6-20.5,12.8-3.2,6.8,8.3,12.8,15.9,13.1,16.9.9,2.3.3,3.2-3.4,5.5-1.9,1.3-2.7,2.5-2.5,4,.3,2.2.4,2.2,25.1,2.4,23.8.1,24.7.1,24.7-1.8,0-2.4-.3-2.4,6.1.5,10.5,4.8,28.3,5,40.4.5,7.6-2.8,16.7-9.8,21-16.1,3.9-5.9,7.5-16.1,7.5-21.5v-3.6l4.8,4.6a56.709,56.709,0,0,0,8,6.1c1.8.9,3.2,2,3.2,2.4,0,1-9.3,6.6-14.5,8.8-4.8,1.9-5.5,2.9-5.5,7.2a15.861,15.861,0,0,0,7.2,12.9c2.1,1.4,3.8,2.8,3.8,3.2,0,.3-2.5,1.9-5.6,3.5-18.1,9.5-13.3,26.3,9.6,33.4,7.8,2.4,32,2.4,40.9-.1,25.4-7,39.5-25.1,32.1-41.4-2.5-5.6-9-9.8-17.3-11.2a182.535,182.535,0,0,0-21.3-.9c-13,.1-15.7-.2-19-1.8-8.5-4.1-4.4-9.4,8.8-11.4,24.6-3.8,33.7-11.5,33.9-28.9.1-11.2.7-12.4,5.6-13.3,7.8-1.3,10.3-4,10.3-11.2,0-5-1.6-5.8-8.6-4.5-4,.8-10.5.9-20.4.3-29.8-1.7-37.2-.6-47.4,7.2-4.6,3.5-10.6,12.3-10.6,15.6,0,2.9-1.5,2.1-3.3-1.7-2.3-4.9-9.2-12.1-14.4-15.2-7.5-4.3-15.9-6.4-26-6.5-27.1,0-47.4,16.9-49,40.9-.8,11.8,1.8,20.5,9.5,31.3,1.9,2.7,1,2.4-4.6-1.7-3.6-2.7-32.2-36.6-32.2-38.2,0-.5,3.3-3.9,7.3-7.5,7.8-7.2,16.6-12.1,23.7-13.1,5.4-.9,7-2,7-5,0-4.1-1.7-4.5-14.6-3.4-6.7.5-16.1.8-21,.7l-8.9-.3v3.5c0,3,.4,3.5,3.1,4,7.2,1.5,7.2,4.3,0,11.5-5,5-16.8,13.5-18.8,13.5-1.3,0-1-69,.4-75,1.1-4.8,1-5.4-.7-6.6C279.6-190.8,277.7-190.3,274-186.5Zm193.6,52.4c7.3,3.3,11.4,11,11.4,21-.1,9.5-4.1,16-11.6,18.6-12.7,4.3-24-10-20.6-26.3,1.4-6.8,4.5-11,9.6-13.3S462.5-136.4,467.6-134.1Zm-82.2,1.5c8.6,3.6,15.4,13.4,18.1,26.1,1.8,8.4,1.9,12.7.4,19.7-3.2,14.9-11.3,22.4-23.5,21.6-10.2-.6-17.8-7.5-22.7-20.6-3.2-8.5-3.1-26.7.1-33.7,2.7-5.8,7.5-11.2,11.7-13.1C373.4-134.3,381.2-134.4,385.4-132.6ZM488.5-50.5c10.1,4.1,4.3,16.9-10.1,22.5-4.7,1.9-8,2.4-15.9,2.4-9.2.1-10.5-.2-16.7-3.1-5.3-2.5-7.1-3.9-8.4-6.7-2.6-5.3-1-9.3,5-13.4l4.8-3.2h18.9C480.4-52,485.9-51.6,488.5-50.5Z" fill="#fff"/><path d="M.8-180.9c-1.4.9-.6,6.1,1.2,7A31.335,31.335,0,0,0,7.9-172a17.063,17.063,0,0,1,6.6,3.4c3.7,3.7,4.5,10.7,4.5,40.4,0,15.2.5,30.6,1,34.2,2.9,18.3,17.1,33.7,35.7,38.5,7.4,1.9,23.2,1.9,30.8,0,17.1-4.5,29-16.6,33-33.7a144.35,144.35,0,0,0,2.1-20l.7-13.7,3.1.6a13.312,13.312,0,0,1,5.9,3.4L134-116v21.3c0,25.1-.4,26.3-8.9,29.2-4.8,1.5-5.1,1.9-5.1,5,0,3.7,1.7,4.9,5.8,3.8,1.5-.4,13.1-.7,25.7-.7l23-.1V-61c0-2.8-.4-3.6-2.5-4.1-15.2-4.1-15.1-3.9-15.3-28.6-.2-19.8.5-24.4,4.4-27.8,3.4-3.1,7.5-2.3,12.2,2.3,4.6,4.5,7,5.1,10.5,2.6,2.1-1.5,2.2-1.4,2.2,1.3,0,12.7,8.1,19.4,32.4,26.9,11.7,3.6,15.6,6.9,15.6,13,0,3.4-.6,5.1-2.4,6.9-6.4,6.4-22.1,5.7-30.8-1.5-3.4-2.8-5.8-7.5-7.2-14.3-.5-2.2-1.2-2.7-3.5-2.7-4.4,0-5.2,1.8-5.1,12.1.1,5.2-.3,10.9-.9,12.7a10.673,10.673,0,0,0-.4,4.8c.8,2.3,5.1,2.9,7.2,1,2.2-2,4.4-2,14.4,0,26.8,5.4,47-6.2,46.9-27-.1-7.2-2.2-12.4-6.9-16.7-4-3.8-7.2-5.2-21.3-9.4-6.9-2-13.9-4.5-15.7-5.6-4.2-2.6-5.7-7-3.9-11.4,4-9.6,22.7-9.3,30.9.5,2.5,3,2.9,3.8,4.1,9.3.6,2.5,1.1,2.8,3.9,2.5l3.2-.3.7-10.5a101.588,101.588,0,0,1,1.3-13.1c1.1-4.3-1.5-5.5-7.8-3.5a18.267,18.267,0,0,1-10.6.6c-14.4-2.7-28.9-.4-35.2,5.6l-2.8,2.6-3.1-3.6c-7.3-8.3-20.5-6.3-29.1,4.4-1.8,2.2-3.6,4-4,4-.5,0-.9-3-1.1-6.7-.4-8.5-1.6-9-10.1-3.4-7.3,4.7-13.5,7.1-18.7,7.1h-3.7l-.6-10.4c-.7-12.1.4-21.4,3-25.9,1.5-2.5,3.2-3.6,8.3-5.3,6.3-2,6.5-2.2,6.5-5.5v-3.4H115.3L91-181.6v3.7c0,4,1.1,4.9,6.1,4.9a18.364,18.364,0,0,1,6.8,2c7,3.5,7.3,5.4,6.9,44.6-.3,32.6-.4,34.1-2.6,39.6-7.3,18.1-28.9,25.6-46.5,16.1-6-3.3-10.6-9-13.8-17-2.2-5.6-2.3-7.1-2.7-40.4-.3-30.7-.2-35.1,1.3-37.9,1.8-3.5,5.6-5.4,12.8-6.4l4.7-.7v-8.4H32.9C15.8-181.5,1.4-181.2.8-180.9Z" fill="#fff"/></g></svg>